<svg id="SvgjsSvg1001" width="288" height="288" xmlns="http://www.w3.org/2000/svg" version="1.1" xmlnsXlink="http://www.w3.org/1999/xlink" xmlnsSvgjs="http://svgjs.com/svgjs"><defs id="SvgjsDefs1002"></defs><g id="SvgjsG1008"><svg xmlns="http://www.w3.org/2000/svg" viewBox="0 0 96 96" width="288" height="288"><path d="M66,42H54V30a6,6,0,0,0-12,0V42H30a6,6,0,0,0,0,12H42V66a6,6,0,0,0,12,0V54H66a6,6,0,0,0,0-12Z" fill="#2c3e50" class="color000 svgShape"></path><path d="M48,0A48,48,0,1,0,96,48,48.0512,48.0512,0,0,0,48,0Zm0,84A36,36,0,1,1,84,48,36.0393,36.0393,0,0,1,48,84Z" fill="#2c3e50" class="color000 svgShape"></path></svg></g></svg>