<svg xmlns="http://www.w3.org/2000/svg" xmlnsSvgjs="http://svgjs.com/svgjs" xmlnsXlink="http://www.w3.org/1999/xlink" width="288" height="288"><svg xmlns="http://www.w3.org/2000/svg" width="288" height="288" viewBox="0 0 185.208 185.208"><g fill="#2c3e50" class="color000 svgShape" transform="translate(244.173 202.685)"><g class="color000 svgShape" transform="translate(708.395 -1395.242)"><path fill="none" stroke="#2c3e50" stroke-linecap="round" stroke-linejoin="round" stroke-miterlimit="6.2" stroke-width="9.26" d="m -172.90538,-1050.9226 c 3.39877,-2.5377 2.99925,-7.8285 0,-10.8277 l -36.20385,-36.2043 c -2.99924,-2.9992 -7.82831,-2.9992 -10.82755,0 l -58.71681,58.6149 -58.63793,58.53587 c -3.02589,18.77157 -6.1309,37.62221 -9.15691,56.3938 l 56.18187,-9.36844 c 30.37245,-30.37282 44.72497,-44.67089 59.21122,-59.10268 14.48613,-14.43185 28.73348,-28.62465 58.14996,-58.04145 z" class="colorStroke000 svgStroke"/><rect width="11.067" height="67.307" x="-601.165" y="865.359" class="color000 svgShape" ry="5.082" transform="rotate(135)"/><path d="m -312.8744,-925.23385 -32.29813,-32.29847 -1.2759,33.12229 z" class="color000 svgShape"/><rect width="11.067" height="67.307" x="-467.454" y="865.783" class="color000 svgShape" ry="5.082" transform="rotate(135)"/></g><g class="color000 svgShape" transform="translate(-22.725 -737.991)"><ellipse cx="-352.555" cy="-1716.312" class="color000 svgShape" rx="5.334" ry="5.342"/><path fill="none" stroke="#2c3e50" stroke-linecap="round" stroke-linejoin="round" stroke-width="9.26" d="m -352.55512,-1698.4895 v 37.8585" class="colorStroke000 svgStroke"/><path fill="none" stroke="#2c3e50" stroke-linecap="round" stroke-linejoin="round" stroke-miterlimit="6.2" stroke-width="9.26" d="m -436.72159,-1743.2881 c -2.10926,0 -3.80747,1.7045 -3.80747,3.8223 v 103.5679 c 0,2.1178 1.69821,3.8231 3.80747,3.8231 h 23.24053 v 36.2859 l 71.37453,-36.2859 h 31.63448 42.08329 c 2.10914,0 3.80758,-1.7053 3.80758,-3.8231 v -103.5679 c 0,-2.1178 -1.69844,-3.8223 -3.80758,-3.8223 z" class="colorStroke000 svgStroke"/></g><g class="color000 svgShape" transform="translate(550.45 -845.171)"><path fill="none" stroke="#2c3e50" stroke-linecap="round" stroke-linejoin="round" stroke-width="9.26" d="M-1849.9638-304.30968h41.1225l69.633-108.80316h23.9087 41.1225M-1674.1771-413.11286l-39.6587-19.99314M-1674.1771-413.11286l-39.6587 19.99316M-1674.1771-304.30968l-39.6587-19.99316M-1674.1771-304.30968l-39.6587 19.99316" class="colorStroke000 svgStroke"/><path fill="none" stroke="#2c3e50" stroke-linecap="round" stroke-linejoin="round" stroke-width="9.26" d="m -1850.0108,-413.10521 h 41.1225 l 69.6331,108.80316 h 23.9086 41.1226" class="colorStroke000 svgStroke"/></g><g class="color000 svgShape" transform="translate(-396.859 -1264.916)"><path fill="none" stroke="#2c3e50" stroke-linecap="round" stroke-linejoin="round" stroke-miterlimit="6.2" stroke-width="9.26" d="m -867.12106,-414.18708 h 104.67358 c 3.37276,0 6.08811,2.70492 6.08811,6.06485 v 144.09387 c 0,3.35992 -2.71535,6.06484 -6.08811,6.06484 h -104.67358 c -3.37287,0 -6.08822,-2.70492 -6.08822,-6.06484 v -144.09387 c 0,-3.35993 2.71535,-6.06485 6.08822,-6.06485 z" class="colorStroke000 svgStroke"/><path fill="none" stroke="#2c3e50" stroke-linecap="round" stroke-linejoin="round" stroke-width="9.26" d="M-872.7638-428.6037h116.31654M-847.83449-394.01058v115.87056M-814.78433-394.01058v115.87056M-781.73416-394.01058v115.87056M-831.68517-433.91096h34.15927" class="colorStroke000 svgStroke"/></g><g class="color000 svgShape" transform="translate(-1842.218 -908.827)"><path fill="none" stroke="#2c3e50" stroke-linecap="round" stroke-linejoin="round" stroke-miterlimit="6.2" stroke-width="9.26" d="m -508.09411,-666.26096 -2.7e-4,50.63486 c 0,1.26357 -0.84285,2.2808 -1.89013,2.2808 h -172.17305 c -1.04714,0 -1.89013,-1.01723 -1.89013,-2.2808 v -50.63486" class="colorStroke000 svgStroke"/><g class="color000 svgShape" transform="matrix(1 0 0 -1 -440.27 -837.778)"><path fill="none" stroke="#2c3e50" stroke-linecap="round" stroke-linejoin="round" stroke-width="9.26" d="M-155.80138-47.138367V-197.97334M-155.80138-197.97325l-43.48169 44.42384M-155.80138-197.97325l43.4817 44.42384" class="colorStroke000 svgStroke"/></g></g><g class="color000 svgShape" transform="translate(-1852.396 -902.058)"><path fill="none" stroke="#2c3e50" stroke-linecap="round" stroke-linejoin="round" stroke-width="9.26" d="M-190.13824-620.9037l-.00016-175.78177M-154.99508-620.80411l-70.28647-.00015M-154.99492-796.78492l-70.28647-.00015" class="colorStroke000 svgStroke"/></g><g class="color000 svgShape" transform="translate(150.4 -731.41)"><path fill="none" stroke="#2c3e50" stroke-linecap="round" stroke-linejoin="round" stroke-width="9.26" d="M-1004.9363-1676.1193h175.8228M-1004.9363-1735.3048h175.8228M-1004.9363-1616.9339h175.8228" class="colorStroke000 svgStroke"/></g><g stroke-width=".7" class="color000 svgShape" transform="matrix(1.40223 0 0 1.45557 666.007 -1856.044)"><path fill="none" stroke="#2c3e50" stroke-linecap="round" stroke-linejoin="round" stroke-miterlimit="6.2" stroke-width="6.482" d="m -127.05,-111.18531 v 84.939867 h -97.20364 v -120.685337 0 h 59.76009" class="colorStroke000 svgStroke"/><path fill="none" stroke="#2c3e50" stroke-linecap="round" stroke-linejoin="round" stroke-width="6.482" d="m -128.34411,-109.94993 h -36.14952 c -0.71698,0 -1.2941,-0.55098 -1.2941,-1.23539 v -34.51006 c 0,-0.6844 0.57712,-1.23539 1.2941,-1.23539 l 37.44363,35.74545 c 0,0.68441 -0.57721,1.23539 -1.29411,1.23539 z" class="colorStroke000 svgStroke"/></g><g stroke-width=".715" class="color000 svgShape" transform="matrix(1.40338 0 0 1.39531 -518.943 -1492.03)"><g stroke-width=".872" class="color000 svgShape" transform="matrix(.82035 0 0 .81915 -1000.815 8.59)"><path fill="none" stroke="#2c3e50" stroke-linecap="round" stroke-linejoin="round" stroke-miterlimit="6.2" stroke-width="8.073" d="M 1064.0341,-145.82398 V -37.473971 H 945.66383 v -153.947239 0 h 72.77317" class="colorStroke000 svgStroke"/><path fill="none" stroke="#2c3e50" stroke-linecap="round" stroke-linejoin="round" stroke-width="8.073" d="m 1062.4582,-144.24812 h -44.0213 c -0.8731,0 -1.5759,-0.70284 -1.5759,-1.57588 v -44.02132 c 0,-0.87303 0.7028,-1.57588 1.5759,-1.57588 l 45.5972,45.5972 c 0,0.87304 -0.7029,1.57588 -1.5759,1.57588 z" class="colorStroke000 svgStroke"/></g><path fill="none" stroke="#2c3e50" stroke-linecap="round" stroke-linejoin="round" stroke-width="6.618" d="M-203.7267-65.835945h56.15017M-203.7267-86.588292h56.15017M-203.7267-45.083597h56.15017" class="colorStroke000 svgStroke"/></g><g class="color000 svgShape" transform="translate(604.6 -721.44)"><path fill="none" stroke="#2c3e50" stroke-linejoin="round" stroke-width="9.26" d="m -1479.3042,-1348.6137 c 43.987,0 87.974,0 131.9609,0 14.6624,14.6623 29.3246,29.3246 43.9869,43.9869 0,43.987 0,87.974 0,131.961 -58.6493,0 -117.2985,0 -175.9478,0 0,-58.6493 0,-117.2986 0,-175.9479 z" class="colorStroke000 svgStroke"/><rect width="72.677" height="47.425" x="-1427.669" y="-1348.614" fill="none" stroke="#2c3e50" stroke-linejoin="round" stroke-width="9.26" class="colorStroke000 svgStroke"/><path fill="none" stroke="#2c3e50" stroke-linecap="round" stroke-linejoin="round" stroke-width="9.26" d="m -1377.3937,-1332.8778 v 15.4954" class="colorStroke000 svgStroke"/><g stroke-width=".868" class="color000 svgShape" transform="translate(2485.573 -1321.016) scale(1.15223)"><rect width="98.601" height="61.57" x="-3414.003" y="67.181" fill="none" stroke="#2c3e50" stroke-linejoin="round" stroke-width="8.037" class="colorStroke000 svgStroke"/><path fill="none" stroke="#2c3e50" stroke-linecap="round" stroke-linejoin="round" stroke-width="8.037" d="M-3332.2349 86.815572h-64.9352M-3332.2349 109.11617h-64.9352" class="colorStroke000 svgStroke"/></g></g><g class="color000 svgShape" transform="translate(1226.356 -2041.938)"><path fill="none" stroke="#2c3e50" stroke-linejoin="round" stroke-miterlimit="6.2" stroke-width="9.26" d="m -270.94092,-413.33916 v 22.49361 m -104.45723,0 v -62.72064 0 h 64.21954" class="colorStroke000 svgStroke"/><path fill="none" stroke="#2c3e50" stroke-linecap="round" stroke-linejoin="round" stroke-width="9.26" d="M-272.33159-411.94889h-38.8471c-.77048 0-1.39067-.62007-1.39067-1.39028v-38.83674c0-.77021.62019-1.39028 1.39067-1.39028l40.23777 40.22702c0 .77021-.62029 1.39028-1.39067 1.39028zM-263.92908-373.52177h12.75166" class="colorStroke000 svgStroke"/><path fill="none" stroke="#2c3e50" stroke-linejoin="round" stroke-width="9.26" d="m -374.82216,-325.24597 h -36.32141 v -64.50356 0 h 175.9479 v 64.50356 h -33.49189" class="colorStroke000 svgStroke"/><g class="color000 svgShape" transform="translate(-171.601 -248.728)"><path fill="none" stroke="#2c3e50" stroke-linecap="round" stroke-linejoin="round" stroke-width="9.26" d="M-181.73851-68.859629h60.34023M-181.73851-50.007184h60.34023" class="colorStroke000 svgStroke"/><rect width="106.135" height="61.087" x="-204.636" y="-89.977" fill="none" stroke="#2c3e50" stroke-linejoin="round" stroke-width="9.26" class="colorStroke000 svgStroke"/></g></g><g class="color000 svgShape" transform="translate(-631.43 -923.688)"><path fill="none" stroke="#2c3e50" stroke-linecap="round" stroke-linejoin="round" stroke-width="9.26" d="M-1479.1986 143.76773l175.8543-175.854357M-1479.1986-32.086627l175.8543 175.854387" class="colorStroke000 svgStroke"/></g><g class="color000 svgShape" transform="translate(238.126 -1067.783)"><ellipse cx="-344.666" cy="-2283.139" fill="none" stroke="#2c3e50" stroke-linecap="round" stroke-linejoin="round" stroke-width="9.26" class="colorStroke000 svgStroke" rx="57.372" ry="56.435" transform="rotate(-45.005)"/><path fill="none" stroke="#2c3e50" stroke-linecap="round" stroke-linejoin="round" stroke-width="9.26" d="m -1738.9413,-1251.8221 -79.1058,-79.1204" class="colorStroke000 svgStroke"/></g><g class="color000 svgShape" transform="translate(986.163 -854.725)"><path fill="none" stroke="#2c3e50" stroke-linecap="round" stroke-linejoin="round" stroke-miterlimit="6.2" stroke-width="9.26" d="m -925.98217,-1197.0125 h -35.14851 v -18.3158 0 h 35.14851 z" class="colorStroke000 svgStroke"/><g class="color000 svgShape" transform="translate(-791.988 -1017.274)"><path fill="none" stroke="#2c3e50" stroke-linecap="round" stroke-linejoin="round" stroke-miterlimit="6.2" stroke-width="9.26" d="M -80.133301,-22.106398 H -223.0036 v -157.632072 0 h 142.870299 z" class="colorStroke000 svgStroke"/><path fill="none" stroke="#2c3e50" stroke-linecap="round" stroke-linejoin="round" stroke-miterlimit="6.2" stroke-width="9.26" d="m -106.55211,-167.13593 h -90.03267 v -6.88925 0 h 90.03267 z" class="colorStroke000 svgStroke"/></g><g stroke-width=".859" class="color000 svgShape" transform="matrix(1.16492 0 0 1.16273 3430.166 -880.554)"><path fill="none" stroke="#2c3e50" stroke-linecap="round" stroke-linejoin="round" stroke-width="7.957" d="M-3788.4218-212.55864h68.3772M-3788.4218-237.18328h68.3772M-3788.4218-187.93401h68.3772M-3788.9913-163.30937h68.3772" class="colorStroke000 svgStroke"/></g></g><g class="color000 svgShape" transform="translate(-1784.91 -907.88)"><ellipse cx="704.225" cy="-258.695" fill="none" stroke="#2c3e50" stroke-linecap="round" stroke-linejoin="round" stroke-width="9.261" class="colorStroke000 svgStroke" rx="23.977" ry="23.822" transform="matrix(.5075 -.86165 .8703 .49253 0 0)"/><path fill="none" stroke="#2c3e50" stroke-linecap="round" stroke-linejoin="round" stroke-width="9.26" d="m 185.26258,-702.97257 -32.84212,-18.58659" class="colorStroke000 svgStroke"/><ellipse cx="-519.544" cy="454.936" fill="none" stroke="#2c3e50" stroke-linecap="round" stroke-linejoin="round" stroke-width="9.261" class="colorStroke000 svgStroke" rx="23.977" ry="23.822" transform="matrix(.5075 .86165 .8703 -.49253 0 0)"/><path fill="none" stroke="#2c3e50" stroke-linecap="round" stroke-linejoin="round" stroke-width="9.26" d="M185.26258-702.97257L152.42046-684.386M185.2703-702.96933l98.805-29.77729M185.2703-702.96933l98.805 29.7773" class="colorStroke000 svgStroke"/></g><g class="color000 svgShape" transform="translate(-336.388 -1009.898)"><g stroke-width=".657" class="color000 svgShape" transform="matrix(1.5227 0 0 1.52124 447.422 -646.112)"><path fill="none" stroke="#2c3e50" stroke-linecap="round" stroke-linejoin="round" stroke-width="22.997" d="M-5468.2984 2139.3147l-.0001-72.6955M-5468.2981 2503.45l-.0002-246.9574" class="colorStroke000 svgStroke" transform="translate(-244.173 -97.607) scale(.26458)"/><circle cx="-1690.993" cy="483.921" r="15.502" fill="none" stroke="#2c3e50" stroke-linecap="round" stroke-linejoin="bevel" stroke-width="6.085" class="colorStroke000 svgStroke"/></g><g stroke-width=".657" class="color000 svgShape" transform="matrix(1.5227 0 0 1.52124 449.93 -646.112)"><path fill="none" stroke="#2c3e50" stroke-linecap="round" stroke-linejoin="round" stroke-width="22.997" d="M-5314.7551 2305.2388l-.0001-238.6196M-5314.7548 2503.45l-.0002-81.0333" class="colorStroke000 svgStroke" transform="translate(-244.173 -97.607) scale(.26458)"/><circle cx="-1650.368" cy="527.822" r="15.502" fill="none" stroke="#2c3e50" stroke-linecap="round" stroke-linejoin="bevel" stroke-width="6.085" class="colorStroke000 svgStroke"/></g><g stroke-width=".657" class="color000 svgShape" transform="matrix(1.5227 0 0 1.52124 405.229 -644.485)"><path fill="none" stroke="#2c3e50" stroke-linecap="round" stroke-linejoin="round" stroke-width="22.997" d="M-5044.0344 2186.7228V2062.5786M-5044.034 2499.4094V2303.9001" class="colorStroke000 svgStroke" transform="translate(-244.173 -97.607) scale(.26458)"/><circle cx="-1578.74" cy="496.465" r="15.502" fill="none" stroke="#2c3e50" stroke-linecap="round" stroke-linejoin="bevel" stroke-width="6.085" class="colorStroke000 svgStroke"/></g></g><g class="color000 svgShape" transform="translate(-228.226 -219.406)"><rect width="116.03" height="175.953" x="-2262.117" y="-1850.649" fill="none" stroke="#2c3e50" stroke-linecap="round" stroke-linejoin="round" stroke-miterlimit="6.2" stroke-width="9.26" class="colorStroke000 svgStroke"/><path fill="none" stroke="#2c3e50" stroke-linecap="round" stroke-linejoin="round" stroke-width="9.26" d="M-2212.1083-1762.673h132.0424M-2080.066-1762.673l-38.8891 38.0512M-2080.066-1762.673l-38.8891-38.0511" class="colorStroke000 svgStroke"/></g><g class="color000 svgShape" transform="translate(-215.526 -196.222)"><rect width="116.03" height="175.953" x="-1895.171" y="-1873.834" fill="none" stroke="#2c3e50" stroke-linecap="round" stroke-linejoin="round" stroke-miterlimit="6.2" stroke-width="9.26" class="colorStroke000 svgStroke"/><path fill="none" stroke="#2c3e50" stroke-linecap="round" stroke-linejoin="round" stroke-width="9.26" d="M-1713.1202-1785.858h-132.0424M-1845.1625-1785.858l38.8891 38.0512M-1845.1625-1785.858l38.8891-38.0511" class="colorStroke000 svgStroke"/></g><g class="color000 svgShape" transform="translate(-1893.25 -908.484)"><path fill="none" stroke="#2c3e50" stroke-linecap="round" stroke-linejoin="round" stroke-miterlimit="6.2" stroke-width="9.26" d="m -822.94577,-666.60436 -2.7e-4,50.63486 c 0,1.26358 -0.84285,2.28081 -1.89013,2.28081 h -172.17305 c -1.04714,0 -1.89013,-1.01723 -1.89013,-2.28081 v -50.63486" class="colorStroke000 svgStroke"/><g class="color000 svgShape" transform="translate(-755.121 -593.01)"><path fill="none" stroke="#2c3e50" stroke-linecap="round" stroke-linejoin="round" stroke-width="9.26" d="M-155.80138-47.138367V-197.97334M-155.80138-197.97325l-43.48169 44.42384M-155.80138-197.97325l43.4817 44.42384" class="colorStroke000 svgStroke"/></g></g><path fill="none" stroke="#2c3e50" stroke-linecap="round" stroke-linejoin="round" stroke-width="9.26" d="m 292.19891,-1203.8827 h 175.7822" class="colorStroke000 svgStroke"/><g class="color000 svgShape" transform="translate(154.562 -1093.802)"><path fill="none" stroke="#2c3e50" stroke-linecap="round" stroke-linejoin="round" stroke-width="9.26" d="M-239.45954-110.08035H-63.67736M-151.56845-197.97144V-22.189261" class="colorStroke000 svgStroke"/></g><g class="color000 svgShape" transform="translate(-401.075 -1192.866)"><ellipse cx="-840.6" cy="-2602.197" fill="none" stroke="#2c3e50" stroke-linecap="round" stroke-linejoin="round" stroke-width="9.26" class="colorStroke000 svgStroke" rx="57.372" ry="56.435" transform="rotate(-45.005)"/><path fill="none" stroke="#2c3e50" stroke-linecap="round" stroke-linejoin="round" stroke-width="9.26" d="M-2315.1744-1126.74l-79.1057-79.1204M-2472.2481-1245.7533h76.0993M-2434.1984-1283.803v76.0993" class="colorStroke000 svgStroke"/></g><g class="color000 svgShape" transform="translate(63.36 -1101.994)"><ellipse cx="-566.176" cy="-2456.273" fill="none" stroke="#2c3e50" stroke-linecap="round" stroke-linejoin="round" stroke-width="9.26" class="colorStroke000 svgStroke" rx="57.372" ry="56.435" transform="rotate(-45.005)"/><path fill="none" stroke="#2c3e50" stroke-linecap="round" stroke-linejoin="round" stroke-width="9.26" d="M-2017.9707-1217.6117l-79.1057-79.1203M-2175.0444-1336.625h76.0993" class="colorStroke000 svgStroke"/></g><g class="color000 svgShape" transform="translate(-7.45 -822.125)"><ellipse cx="-598.089" cy="-2883.944" fill="none" stroke="#2c3e50" stroke-linecap="round" stroke-linejoin="round" stroke-width="9.26" class="colorStroke000 svgStroke" rx="57.372" ry="56.435" transform="rotate(-45.005)"/><path fill="none" stroke="#2c3e50" stroke-linecap="round" stroke-linejoin="round" stroke-width="9.26" d="m -2342.9156,-1497.4809 -79.1058,-79.1204" class="colorStroke000 svgStroke"/></g><g class="color000 svgShape" transform="translate(-3120.861 -421.046)"><rect width="153.947" height="153.947" x="228.714" y="-496.777" fill="none" stroke="#2c3e50" stroke-linecap="round" stroke-linejoin="round" stroke-miterlimit="6.2" stroke-width="9.26" class="colorStroke000 svgStroke"/><path fill="none" stroke="#2c3e50" stroke-linecap="round" stroke-linejoin="round" stroke-miterlimit="6.2" stroke-width="9.26" d="m 250.71444,-496.77699 v -22.00073 0 h 153.94724 v 153.94724 h -22.00073" class="colorStroke000 svgStroke"/></g><g class="color000 svgShape" transform="translate(-312.384 -1532.921)"><path fill="none" stroke="#2c3e50" stroke-linecap="round" stroke-linejoin="round" stroke-width="9.26" d="M392.74279-12.27948h-71.21026c-61.03471 0-61.03471-93.20769 5.20191-93.20769h90.48202 35.06893M452.28539-105.48717l-38.8891 38.05115M452.28539-105.48717l-38.8891-38.05115" class="colorStroke000 svgStroke"/></g><g class="color000 svgShape" transform="translate(56.755 -1230.297)"><path fill="none" stroke="#2c3e50" stroke-linecap="round" stroke-linejoin="round" stroke-width="9.26" d="M-460.4089-314.90398h71.21026c61.0347 0 61.0347-93.20769-5.20191-93.20769h-90.48202-35.06893M-519.9515-408.11167l38.8891 38.05115M-519.9515-408.11167l38.8891-38.05115" class="colorStroke000 svgStroke"/></g><g class="color000 svgShape" transform="translate(-1725.165 -1092.976)"><path fill="none" stroke="#2c3e50" stroke-linecap="round" stroke-linejoin="round" stroke-width="9.26" d="M184.0267-110.90647L88.823128-22.978113M184.0267-110.90647L88.823128-198.83482" class="colorStroke000 svgStroke"/></g><g class="color000 svgShape" transform="translate(-2672.449 -836.66)"><path fill="none" stroke="#2c3e50" stroke-linecap="round" stroke-linejoin="round" stroke-width="9.26" d="M-179.32648-367.22226l95.203558 87.92835M-179.32648-367.22226l95.203558-87.92836" class="colorStroke000 svgStroke"/></g><g class="color000 svgShape" transform="translate(186.06 -1073.96)"><g stroke-width=".975" class="color000 svgShape" transform="matrix(1.02602 0 0 1.02564 -467.165 -277.974)"><path fill="none" stroke="#2c3e50" stroke-linecap="round" stroke-linejoin="round" stroke-width="9.027" d="M-158.46651 96.671625l38.88909 38.051155M-158.46651 96.671625l38.88909-38.05115" class="colorStroke000 svgStroke"/></g><path fill="none" stroke="#2c3e50" stroke-width="9.26" d="m -629.80255,-110.38615 c 0,27.680812 16.68063,52.63599 42.26373,63.228983 25.58311,10.592992 55.03053,4.737675 74.61101,-14.835612 19.58046,-19.573296 25.43792,-49.009931 14.84104,-74.583681 -10.59687,-25.57373 -35.13,-42.24554 -62.82095,-42.24554 l -68.84199,0.003" class="colorStroke000 svgStroke"/></g><path fill="none" stroke="#2c3e50" stroke-linecap="round" stroke-linejoin="round" stroke-width="9.26" d="m -1528.3269,-888.41789 h -175.9495 l 90.0418,-75.8658 z m -106.8185,100.07371 h -46.5326 v -100.07391 h 129.1794 v 100.07391 h -46.5326 m -36.1145,-0.1181 v -48.0593 0 h 36.1147 v 48.0593" class="colorStroke000 svgStroke"/><g class="color000 svgShape" transform="translate(42.366 -1073.96)"><g stroke-width=".975" class="color000 svgShape" transform="matrix(-1.02602 0 0 1.02564 -903.165 -277.974)"><path fill="none" stroke="#2c3e50" stroke-linecap="round" stroke-linejoin="round" stroke-width="9.027" d="M-158.46651 96.671625l38.88909 38.051155M-158.46651 96.671625l38.88909-38.05115" class="colorStroke000 svgStroke"/></g><path fill="none" stroke="#2c3e50" stroke-width="9.26" d="m -740.52767,-110.38615 c 0,27.680812 -16.68063,52.63599 -42.26373,63.228983 -25.58311,10.592992 -55.03053,4.737675 -74.61101,-14.835612 -19.58046,-19.573296 -25.43792,-49.009931 -14.84104,-74.583681 10.59687,-25.57373 35.13,-42.24554 62.82095,-42.24554 l 68.84199,0.003" class="colorStroke000 svgStroke"/></g><g class="color000 svgShape" transform="translate(-240.947 -1137.516)"><circle cx="-690.901" cy="-1105.169" r="87.974" fill="none" stroke="#2c3e50" stroke-linecap="round" stroke-linejoin="round" stroke-width="9.26" class="colorStroke000 svgStroke" transform="rotate(45)"/><circle cx="-690.901" cy="-1105.169" r="59.536" fill="none" stroke="#2c3e50" stroke-linecap="round" stroke-linejoin="round" stroke-width="9.26" class="colorStroke000 svgStroke" transform="rotate(45)"/><path fill="none" stroke="#2c3e50" stroke-linecap="round" stroke-linejoin="round" stroke-width="9.26" d="M335.03003-1227.9151l20.04987 20.0499M230.78314-1332.162l20.04987 20.0499M250.833-1227.9151l-20.04986 20.0499M355.0799-1332.162l-20.04987 20.0499" class="colorStroke000 svgStroke"/></g><g class="color000 svgShape" transform="translate(-291.467 -1158.517)"><ellipse cx="452.398" cy="693.554" fill="none" stroke="#2c3e50" stroke-linecap="round" stroke-linejoin="round" stroke-width="9.26" class="colorStroke000 svgStroke" rx="31.199" ry="31.635" transform="rotate(-90.006) skewX(-.011)"/><path fill="none" stroke="#2c3e50" stroke-linecap="round" stroke-linejoin="round" stroke-width="9.26" d="M837.76177-452.3395l-112.58661-.006M781.1025-426.26069l.006-26.05829M799.02985-430.77546l.006-21.57197M816.9572-426.2826l.006-26.0583" class="colorStroke000 svgStroke"/></g><path fill="none" stroke="#2c3e50" stroke-linecap="round" stroke-linejoin="round" stroke-width="14.841" d="m -112.51194,-183.04153 38.319677,95.424145 102.595188,6.9565 -78.912325,65.931857 25.087632,99.723499 -87.090172,-54.676016 -87.09018,54.676012 25.08764,-99.723494 -78.91232,-65.931866 102.59518,-6.956492 z" class="colorStroke000 svgStroke" transform="matrix(.62427 0 0 .62366 -81.33 -79.507)"/><g class="color000 svgShape" transform="translate(-1.409 -1533.7)"><ellipse cx="518.3" cy="619.601" fill="none" stroke="#2c3e50" stroke-linecap="round" stroke-linejoin="round" stroke-width="9.261" class="colorStroke000 svgStroke" rx="23.977" ry="23.822" transform="matrix(.5075 -.86165 .8703 .49253 0 0)"/><ellipse cx="406.422" cy="684.842" fill="none" stroke="#2c3e50" stroke-linecap="round" stroke-linejoin="round" stroke-width="9.261" class="colorStroke000 svgStroke" rx="23.977" ry="23.822" transform="matrix(.5075 -.86165 .8703 .49253 0 0)"/><ellipse cx="525.334" cy="762.389" fill="none" stroke="#2c3e50" stroke-linecap="round" stroke-linejoin="round" stroke-width="9.261" class="colorStroke000 svgStroke" rx="23.977" ry="23.822" transform="matrix(.5075 -.86165 .8703 .49253 0 0)"/><path fill="none" stroke="#2c3e50" stroke-linecap="round" stroke-linejoin="round" stroke-width="9.26" d="M827.83933-128.56733l76.63311 38.524913M823.82442-23.719791l84.73882-42.599805" class="colorStroke000 svgStroke"/></g><g class="color000 svgShape" transform="rotate(90 -767.894 -2037.618)"><path fill="none" stroke="#2c3e50" stroke-linecap="round" stroke-linejoin="round" stroke-width="9.26" d="M18.239132-367.22227L113.4427-455.15062M18.23914-367.22227l95.20356 87.92836" class="colorStroke000 svgStroke"/></g><g class="color000 svgShape" transform="matrix(0 -1 -1 0 -2409.756 -1138.042)"><path fill="none" stroke="#2c3e50" stroke-linecap="round" stroke-linejoin="round" stroke-width="9.26" d="M18.239132-367.22227L113.4427-455.15062M18.23914-367.22227l95.20356 87.92836" class="colorStroke000 svgStroke"/></g><g class="color000 svgShape" transform="translate(-3066.863 -368.813)"><g class="color000 svgShape" transform="translate(1989.08 -136.045)"><path fill="none" stroke="#2c3e50" stroke-linecap="round" stroke-linejoin="round" stroke-width="9.26" d="M-179.32648-367.22226l95.203558-62.4843M-179.32648-367.22226l95.203558 62.4843" class="colorStroke000 svgStroke"/></g><path fill="none" stroke="#2c3e50" stroke-linecap="round" stroke-width="9.26" d="m 1800.4444,-591.19554 v 175.8567" class="colorStroke000 svgStroke"/></g><g class="color000 svgShape" transform="translate(-436.267 -578.867)"><g class="color000 svgShape" transform="matrix(-1 0 0 1 -537.454 65.543)"><path fill="none" stroke="#2c3e50" stroke-linecap="round" stroke-linejoin="round" stroke-width="9.26" d="M-179.32648-367.22226l95.203558-62.4843M-179.32648-367.22226l95.203558 62.4843" class="colorStroke000 svgStroke"/></g><path fill="none" stroke="#2c3e50" stroke-linecap="round" stroke-width="9.26" d="m -348.81804,-389.60782 v 175.85669" class="colorStroke000 svgStroke"/></g><g class="color000 svgShape" transform="translate(1428.301 -704.612)"><ellipse cx="-1833.87" cy="-222.459" fill="none" stroke="#2c3e50" stroke-linecap="round" stroke-linejoin="round" stroke-width="9.26" class="colorStroke000 svgStroke" rx="41.306" ry="41.449"/><path fill="none" stroke="#2c3e50" stroke-linecap="round" stroke-linejoin="round" stroke-width="9.26" d="m -1921.5762,-88.029044 h 175.4132 m -175.4132,2e-6 a 87.974326,86.256897 0 0 1 -0.2678,-6.724292 87.974326,86.256897 0 0 1 87.9743,-86.256896 87.974326,86.256897 0 0 1 87.9744,86.256896 v 0 a 87.974326,86.256897 0 0 1 -0.2679,6.725982" class="colorStroke000 svgStroke"/></g><path fill="none" stroke="#2c3e50" stroke-linecap="round" stroke-linejoin="round" stroke-width="9.26" d="m 16.192758,-908.35906 c -5.379,-20.22358 -23.8631003,-34.31947 -45.0035,-34.31947 -1.6883,0 -3.3754,0.0908 -5.0537,0.27224 m -39.8743,34.0132 c -0.5235,-0.0196 -1.0473,-0.0294 -1.5711,-0.0294 -22.901,-10e-6 -41.465898,18.36411 -41.465898,41.01743 0,9.84637 2.1625,21.35929 10.0738,26.79863 42.646798,29.3213 113.1666977,29.32745 155.809298,2e-5 7.9097,-5.43989 10.0648,-16.95225 10.0648,-26.79862 0,-22.65332 -18.564898,-41.01744 -41.4659,-41.01743 -0.5238,0 -1.0476,0.01 -1.5711,0.0294 m -89.9315,0.034 c 5.379,-20.22358 23.8631,-34.31947 45.0035,-34.31947 1.6883,0 3.3754,0.0908 5.0537,0.27224" class="colorStroke000 svgStroke"/><rect width="175.948" height="175.948" x="-429.927" y="-2070.053" fill="none" stroke="#2c3e50" stroke-linecap="round" stroke-linejoin="round" stroke-width="9.26" class="colorStroke000 svgStroke"/><g class="color000 svgShape" transform="translate(108.066 -1823.58)"><rect width="25.929" height="25.929" x="-516.693" y="-200.039" fill="none" stroke="#2c3e50" stroke-linecap="round" stroke-linejoin="round" stroke-width="9.26" class="colorStroke000 svgStroke"/><rect width="25.929" height="25.929" x="-462.983" y="-200.039" fill="none" stroke="#2c3e50" stroke-linecap="round" stroke-linejoin="round" stroke-width="9.26" class="colorStroke000 svgStroke"/><rect width="25.929" height="25.929" x="-409.273" y="-200.039" fill="none" stroke="#2c3e50" stroke-linecap="round" stroke-linejoin="round" stroke-width="9.26" class="colorStroke000 svgStroke"/><rect width="25.929" height="25.929" x="-516.693" y="-142.889" fill="none" stroke="#2c3e50" stroke-linecap="round" stroke-linejoin="round" stroke-width="9.26" class="colorStroke000 svgStroke"/><rect width="25.929" height="25.929" x="-462.983" y="-142.889" fill="none" stroke="#2c3e50" stroke-linecap="round" stroke-linejoin="round" stroke-width="9.26" class="colorStroke000 svgStroke"/><rect width="25.929" height="25.929" x="-409.273" y="-142.889" fill="none" stroke="#2c3e50" stroke-linecap="round" stroke-linejoin="round" stroke-width="9.26" class="colorStroke000 svgStroke"/></g><rect width="175.948" height="139.344" x="-429.927" y="-2051.751" fill="none" stroke="#2c3e50" stroke-linecap="round" stroke-linejoin="round" stroke-width="9.26" class="colorStroke000 svgStroke"/><g class="color000 svgShape" transform="translate(-65.37 -968.71)"><rect width="116.03" height="175.953" x="-1630.547" y="-1101.345" fill="none" stroke="#2c3e50" stroke-linecap="round" stroke-linejoin="round" stroke-miterlimit="6.2" stroke-width="9.26" class="colorStroke000 svgStroke"/><path fill="none" stroke="#2c3e50" stroke-linecap="round" stroke-linejoin="round" stroke-width="9.26" d="M-1696.5682-1013.3687h132.0424M-1564.5259-1013.3687l-38.8891 38.05119M-1564.5259-1013.3687l-38.8891-38.0511" class="colorStroke000 svgStroke"/></g><g class="color000 svgShape" transform="translate(1196.089 623.788)"><rect width="116.03" height="175.953" x="-2486.665" y="-2693.843" fill="none" stroke="#2c3e50" stroke-linecap="round" stroke-linejoin="round" stroke-miterlimit="6.2" stroke-width="9.26" class="colorStroke000 svgStroke"/><path fill="none" stroke="#2c3e50" stroke-linecap="round" stroke-linejoin="round" stroke-width="9.26" d="M-2420.6435-2605.8673h-132.0424M-2552.6858-2605.8673l38.8891 38.0512M-2552.6858-2605.8673l38.8891-38.0511" class="colorStroke000 svgStroke"/></g><g class="color000 svgShape" transform="translate(-143.94 -435.892)"><path fill="none" stroke="#2c3e50" stroke-linecap="round" stroke-linejoin="round" stroke-width="9.26" d="M510.39322-419.2546h99.0598M510.39322-478.4401h99.0598M510.39322-360.06921h99.0598" class="colorStroke000 svgStroke"/><circle cx="491.237" cy="-478.44" r="4.63" class="color000 svgShape"/><circle cx="491.237" cy="-419.255" r="4.63" class="color000 svgShape"/><circle cx="491.237" cy="-360.069" r="4.63" class="color000 svgShape"/><path fill="none" stroke="#2c3e50" stroke-linecap="round" stroke-linejoin="round" stroke-width="9.26" d="M433.62349-419.2546h38.45635M433.62349-478.4401h38.45635M433.62349-360.06921h38.45635" class="colorStroke000 svgStroke"/></g><path fill="none" stroke="#2c3e50" stroke-linecap="round" stroke-linejoin="round" stroke-width="9.26" d="m -2794.5038,-2031.0828 c -7.0159,-7.7603 -14.0319,-15.5207 -21.0478,-23.281 -11.7868,0 -23.5737,0 -35.3605,0 m -32.9111,23.281 c 7.0159,-7.7603 14.0319,-15.5207 21.0478,-23.281 11.7868,0 23.5737,0 35.3605,0 m 111.2154,144.5691 c -58.6493,0 -117.2986,0 -175.9479,0 0,-40.4294 0,-80.8587 0,-121.2881 58.6493,0 117.2986,0 175.9479,0 0,40.4294 0,80.8587 0,121.2881 z" class="colorStroke000 svgStroke"/><rect width="175.948" height="105.584" x="744.321" y="-2034.872" fill="none" stroke="#2c3e50" stroke-linecap="round" stroke-linejoin="round" stroke-width="9.26" class="colorStroke000 svgStroke"/><path fill="none" stroke="#2c3e50" stroke-linecap="round" stroke-linejoin="round" stroke-width="9.26" d="m 920.26868,-2034.8716 -175.96193,-0.3367 87.69092,78.011 z" class="colorStroke000 svgStroke"/><path fill="none" stroke="#2c3e50" stroke-linecap="round" stroke-linejoin="round" stroke-width="9.26" d="m 803.84583,-1981.9173 -59.539,52.9667 175.96185,-0.3369 -59.79582,-52.6174 -28.46131,25.0444 z" class="colorStroke000 svgStroke"/><path fill="none" stroke="#2c3e50" stroke-width="9.26" d="m -1185.807,-2341.5635 v -133.0631 h -42.6218 v 155.0684 h 61.8115 v -175.9433 h -83.0773 v 153.938" class="colorStroke000 svgStroke"/><g class="color000 svgShape" transform="translate(34.129 -6.585)"><path fill="none" stroke="#2c3e50" stroke-linecap="round" stroke-linejoin="round" stroke-width="9.26" d="M763.41671-840.01578a150.88508 154.11206 0 0150.68894-8.95671 150.88508 154.11206 0 0150.68635 8.95576M744.75814-872.99241a187.68634 191.70036 0 0169.35474-13.56839 187.68634 191.70036 0 0169.33769 13.56145M726.19227-905.84079a224.48756 229.28865 0 0187.90085-18.30833 224.48756 229.28865 0 0187.92332 18.3181" class="colorStroke000 svgStroke"/><ellipse cx="814.104" cy="-798.318" fill="none" stroke="#2c3e50" stroke-linecap="round" stroke-linejoin="round" stroke-width="9.26" class="colorStroke000 svgStroke" rx="18.761" ry="18.767"/></g></g></svg></svg>